<?xml version="1.0" encoding="UTF-8"?>
<!DOCTYPE svg PUBLIC "-//W3C//DTD SVG 1.1//EN" "http://www.w3.org/Graphics/SVG/1.1/DTD/svg11.dtd">
<!-- Creator: CorelDRAW 2020 (64-Bit) -->
<svg xmlns="http://www.w3.org/2000/svg" xml:space="preserve" width="135.467mm" height="135.467mm" version="1.1" style="shape-rendering:geometricPrecision; text-rendering:geometricPrecision; image-rendering:optimizeQuality; fill-rule:evenodd; clip-rule:evenodd"
viewBox="0 0 13546.66 13546.66"
 xmlns:xlink="http://www.w3.org/1999/xlink"
 xmlns:xodm="http://www.corel.com/coreldraw/odm/2003">
 <defs>
  <style type="text/css">
   <![CDATA[
    .fil2 {fill:#4A1515;fill-rule:nonzero}
    .fil0 {fill:url(#id7)}
    .fil6 {fill:url(#id8)}
    .fil5 {fill:url(#id9)}
    .fil1 {fill:url(#id10)}
    .fil3 {fill:url(#id11);fill-rule:nonzero}
    .fil4 {fill:url(#id12);fill-rule:nonzero}
   ]]>
  </style>
    <clipPath id="id0">
     <rect x="1816.93" y="2369.81" width="10405.16" height="3856.26"/>
    </clipPath>
   <clipPath id="id1">
    <path d="M3565.56 5904.9l7208.59 0 26.72 873.31 -7208.6 0 -26.71 -873.31z"/>
   </clipPath>
   <clipPath id="id2">
    <path d="M7976.29 3944.25l1567.5 0 2.16 1765.29 -1567.51 0 -2.15 -1765.29z"/>
   </clipPath>
   <clipPath id="id3">
    <path d="M9310.98 3916.73l1819.31 0 2.21 1816.02 -1819.3 0 -2.22 -1816.02z"/>
   </clipPath>
   <clipPath id="id4">
    <path d="M4965.13 3915.25l1819.29 0 2.22 1816.02 -1819.29 0 -2.22 -1816.02z"/>
   </clipPath>
   <clipPath id="id5">
    <path d="M3565.56 3925.02l1648.99 0 2.26 1857.04 -1648.99 0 -2.26 -1857.04z"/>
   </clipPath>
   <clipPath id="id6">
    <path d="M6529.96 3910.77l1913.36 0 2.23 1826.67 -1913.36 0 -2.23 -1826.67z"/>
   </clipPath>
  <linearGradient id="id7" gradientUnits="userSpaceOnUse" x1="6981.23" y1="8953.78" x2="6981.23" y2="1890.49">
   <stop offset="0" style="stop-opacity:1; stop-color:#C8C9C9"/>
   <stop offset="0.133333" style="stop-opacity:1; stop-color:#D5D6D6"/>
   <stop offset="0.25098" style="stop-opacity:1; stop-color:#E3E3E3"/>
   <stop offset="0.458824" style="stop-opacity:1; stop-color:#807878"/>
   <stop offset="0.54902" style="stop-opacity:1; stop-color:#2A2B2B"/>
   <stop offset="0.647059" style="stop-opacity:1; stop-color:#8E8F8F"/>
   <stop offset="1" style="stop-opacity:1; stop-color:#F2F3F3"/>
  </linearGradient>
  <linearGradient id="id8" gradientUnits="userSpaceOnUse" x1="7571.71" y1="5360.41" x2="7077.44" y2="4041.29">
   <stop offset="0" style="stop-opacity:1; stop-color:#B3B3B3"/>
   <stop offset="0.121569" style="stop-opacity:1; stop-color:#939494"/>
   <stop offset="0.211765" style="stop-opacity:1; stop-color:#737474"/>
   <stop offset="0.345098" style="stop-opacity:1; stop-color:#8F8F8F"/>
   <stop offset="0.419608" style="stop-opacity:1; stop-color:#ABABAB"/>
   <stop offset="0.619608" style="stop-opacity:1; stop-color:#F4F5F6"/>
   <stop offset="0.67451" style="stop-opacity:1; stop-color:#BBBBBC"/>
   <stop offset="0.831373" style="stop-opacity:1; stop-color:#818081"/>
   <stop offset="0.941176" style="stop-opacity:1; stop-color:#B4B4B4"/>
   <stop offset="1" style="stop-opacity:1; stop-color:#E8E8E8"/>
  </linearGradient>
  <linearGradient id="id9" gradientUnits="userSpaceOnUse" xlink:href="#id8" x1="4529.45" y1="5381.19" x2="3926.46" y2="4078.95">
  </linearGradient>
  <linearGradient id="id10" gradientUnits="userSpaceOnUse" x1="7357.26" y1="8751.76" x2="6578.06" y2="2034.94">
   <stop offset="0" style="stop-opacity:1; stop-color:#282829"/>
   <stop offset="0.278431" style="stop-opacity:1; stop-color:#DEDFDF"/>
   <stop offset="0.658824" style="stop-opacity:1; stop-color:#575757"/>
   <stop offset="1" style="stop-opacity:1; stop-color:#0D0C0C"/>
  </linearGradient>
  <linearGradient id="id11" gradientUnits="objectBoundingBox" xlink:href="#id8" x1="50.1772%" y1="103.781%" x2="49.8232%" y2="0%">
  </linearGradient>
  <linearGradient id="id12" gradientUnits="objectBoundingBox" xlink:href="#id8" x1="68.3206%" y1="96.5234%" x2="31.6798%" y2="3.4765%">
  </linearGradient>
 </defs>
 <g id="Capa_x0020_1">
  <metadata id="CorelCorpID_0Corel-Layer"/>
  <polygon class="fil0" points="1246.4,3492.05 6964.85,1890.49 12718.17,3478.24 12718.17,7356.91 6965.55,8953.78 1244.28,7348.87 "/>
  <polygon class="fil1" points="1426.97,3640.58 6966.06,2050.98 12507.77,3618.05 12508.35,7153.11 6966.44,8735.71 1427.4,7137.27 "/>
  <polygon class="fil2" points="1603.71,3857.53 6967.35,2269.37 12351.97,3775.96 12355.35,6943.62 6967.35,8529.05 1597.75,6932.4 "/>
  <g id="_1709418142896">
   <g style="clip-path:url(#id0)">
    <image x="1816.93" y="2369.81" width="10405.16" height="3856.26" xlink:href="logo rgb svg_Images\logo rgb svg_ImgID1.png"/>
   </g>
  </g>
  <g style="clip-path:url(#id1)">
   <image x="3565.56" y="5904.9" width="7235.31" height="873.31" xlink:href="logo rgb svg_Images\logo rgb svg_ImgID2.png"/>
  </g>
  <path class="fil3" d="M4034.39 6382.38l78.08 192.38 100.84 0 -249.39 -611.63 -113.86 0 -248.3 611.63 97.59 0 75.9 -192.38 259.14 0zm-239.62 -61.71l71.56 -176.96c14.1,-37.2 26.02,-74.41 36.86,-110.71l2.17 0c10.85,35.39 21.69,71.69 37.95,111.62l71.57 176.05 -220.11 0zm494.44 -357.54l0 360.26c0,189.66 112.77,261.35 262.4,261.35 158.31,0 276.5,-77.13 276.5,-264.98l0 -356.63 -95.42 0 0 362.08c0,135.21 -69.39,195.1 -177.82,195.1 -97.59,0 -170.25,-58.08 -170.25,-195.1l0 -362.08 -95.41 0zm841.42 611.63l95.42 0 0 -544.48 223.37 0 0 -67.15 -541.07 0 0 67.15 222.28 0 0 544.48zm666.85 -621.61c-195.18,0 -339.39,127.04 -339.39,321.24 0,185.12 135.54,310.35 328.54,310.35 186.51,0 339.39,-111.62 339.39,-322.15 0,-181.49 -129.03,-309.44 -328.54,-309.44zm-4.34 64.43c157.22,0 233.13,127.04 233.13,248.64 0,138.85 -84.58,254.09 -234.22,254.09 -148.54,0 -233.12,-117.06 -233.12,-247.73 0,-134.31 78.07,-255 234.21,-255zm1089.73 557.18l92.17 0 -45.55 -611.63 -120.35 0 -130.12 295.83c-32.53,77.13 -58.55,144.29 -76.99,206l-3.25 0c-18.43,-63.53 -43.37,-130.68 -73.73,-206l-124.69 -295.83 -120.36 0 -50.97 611.63 90 0 19.52 -262.26c6.5,-91.65 11.93,-194.19 14.09,-270.42l2.18 0c20.59,72.59 49.87,151.54 84.57,237.75l118.19 291.3 71.56 0 129.04 -296.74c36.86,-84.39 67.22,-160.62 92.16,-232.31l3.26 0c-1.09,76.23 5.42,178.77 10.84,264.07l18.43 268.61zm533.48 -621.61c-195.18,0 -339.39,127.04 -339.39,321.24 0,185.12 135.54,310.35 328.54,310.35 186.51,0 339.39,-111.62 339.39,-322.15 0,-181.49 -129.03,-309.44 -328.54,-309.44zm-4.34 64.43c157.22,0 233.13,127.04 233.13,248.64 0,138.85 -84.58,254.09 -234.22,254.09 -148.54,0 -233.12,-117.06 -233.12,-247.73 0,-134.31 78.07,-255 234.21,-255zm567.1 557.18l95.41 0 0 -544.48 223.37 0 0 -67.15 -541.07 0 0 67.15 222.29 0 0 544.48zm666.84 -621.61c-195.17,0 -339.38,127.04 -339.38,321.24 0,185.12 135.53,310.35 328.54,310.35 186.5,0 339.39,-111.62 339.39,-322.15 0,-181.49 -129.03,-309.44 -328.55,-309.44zm-4.34 64.43c157.23,0 233.13,127.04 233.13,248.64 0,138.85 -84.58,254.09 -234.21,254.09 -148.55,0 -233.12,-117.06 -233.12,-247.73 0,-134.31 78.06,-255 234.2,-255zm455.41 557.18l94.34 0 0 -264.98 88.91 0c85.66,2.72 124.7,34.49 146.38,118.88 20.6,76.23 36.87,128.86 48.8,146.1l97.59 0c-15.18,-23.59 -32.53,-82.58 -56.39,-167.88 -17.35,-63.52 -50.96,-107.08 -107.34,-123.41l0 -2.73c76.98,-21.78 137.7,-75.32 137.7,-156.08 0,-47.19 -20.6,-88.93 -57.46,-116.16 -45.54,-34.48 -110.61,-49.91 -211.45,-49.91 -65.05,0 -133.37,4.54 -181.08,12.7l0 603.47zm94.34 -548.11c15.18,-3.63 47.71,-7.26 93.25,-7.26 99.76,0.91 168.07,35.39 168.07,114.34 0,69.87 -63.98,116.16 -164.82,116.16l-96.5 0 0 -223.24zm867.44 196.02l-284.09 0 0 -193.3 300.36 0 0 -66.24 -394.69 0 0 611.63 410.96 0 0 -66.25 -316.63 0 0 -220.51 284.09 0 0 -65.33zm118.19 322.14c39.04,21.78 116.03,39.03 186.5,39.03 172.41,0 255.9,-81.68 255.9,-176.05 0,-89.84 -62.89,-139.75 -186.5,-179.68 -100.84,-32.67 -145.3,-60.8 -145.3,-117.97 0,-41.75 37.95,-91.66 137.71,-91.66 66.14,0 114.93,18.15 138.79,29.04l26.02 -64.43c-32.52,-15.42 -86.74,-29.94 -161.55,-29.94 -142.05,0 -236.39,70.78 -236.39,166.06 0,86.21 73.74,137.94 193.01,173.33 98.67,31.76 137.71,64.43 137.71,121.6 0,61.71 -56.39,104.36 -152.89,104.36 -65.06,0 -126.86,-18.15 -169.15,-39.93l-23.86 66.24z"/>
  <g style="clip-path:url(#id2)">
   <image x="7976.29" y="3944.25" width="1569.66" height="1765.29" xlink:href="logo rgb svg_Images\logo rgb svg_ImgID3.png"/>
  </g>
  <polygon class="fil3" points="8798.9,4404.54 8798.9,5401.54 8396.97,5401.54 8396.97,4404.54 7995.04,4404.54 7995.04,4005.74 9200.83,4005.74 9200.83,4404.54 "/>
  <g style="clip-path:url(#id3)">
   <image x="9310.98" y="3916.73" width="1821.52" height="1816.02" xlink:href="logo rgb svg_Images\logo rgb svg_ImgID4.png"/>
  </g>
  <path class="fil4" d="M10758.29 4701.51c0,-383.35 -313.38,-694.28 -699.73,-694.28 -386.34,0 -699.73,310.93 -699.73,694.28 0,383.33 313.39,694.27 699.73,694.27 386.35,0 699.73,-310.94 699.73,-694.27zm-699.73 -288.27c159.22,0 288.28,129.06 288.28,288.27 0,159.22 -129.06,288.28 -288.28,288.28 -159.21,0 -288.27,-129.06 -288.27,-288.28 0,-159.21 129.06,-288.27 288.27,-288.27z"/>
  <g style="clip-path:url(#id4)">
   <image x="4965.13" y="3915.25" width="1821.51" height="1816.02" xlink:href="logo rgb svg_Images\logo rgb svg_ImgID5.png"/>
  </g>
  <g style="clip-path:url(#id5)">
   <image x="3565.56" y="3925.02" width="1651.25" height="1857.04" xlink:href="logo rgb svg_Images\logo rgb svg_ImgID6.png"/>
  </g>
  <path class="fil5" d="M4386.33 3995.9c131.32,0 243.16,46.17 336.24,138.53 93.07,92.35 139.61,203.31 139.61,333.61 0,129.94 -46.54,241.27 -139.61,333.26 -93.08,92.36 -204.92,138.53 -336.24,138.53l-369.79 0 0 524.41 -422.81 0 0 -1468.34 792.6 0zm-403.84 295.04l298.3 0c239.18,-11.37 264.58,365.62 0,365.04l-300.11 0.58 1.81 -376.99"/>
  <g style="clip-path:url(#id6)">
   <image x="6529.96" y="3910.77" width="1915.59" height="1826.67" xlink:href="logo rgb svg_Images\logo rgb svg_ImgID7.png"/>
  </g>
  <path class="fil6" d="M7332.98 4002.49c124.91,0 231.29,43.92 319.83,131.77 88.54,87.85 132.8,193.41 132.8,317.35 0,123.6 -44.26,229.49 -132.8,317 -38.78,38.81 -80.99,69.12 -126.63,90.91l543.92 539.69 -568.97 0 -519.9 -515.86 0 515.86 -402.19 0 0 -1396.72 753.94 0zm-392.53 288.56l298.3 0c239.18,-11.37 264.58,365.62 0,365.04l-300.11 0.58 1.81 -376.99"/>
  <path class="fil4" d="M6441.35 4701.51c0,-383.35 -313.38,-694.28 -699.73,-694.28 -386.34,0 -699.73,310.93 -699.73,694.28 0,383.33 313.39,694.27 699.73,694.27 386.35,0 699.73,-310.94 699.73,-694.27zm-699.73 -288.27c159.22,0 288.28,129.06 288.28,288.27 0,159.22 -129.06,288.28 -288.28,288.28 -159.21,0 -288.27,-129.06 -288.27,-288.28 0,-159.21 129.06,-288.27 288.27,-288.27z"/>
 </g>
</svg>
